<?xml version="1.0" encoding="UTF-8" standalone="no"?>
<!-- Created with Inkscape (http://www.inkscape.org/) -->

<svg
   width="279.39896mm"
   height="69.681999mm"
   viewBox="0 0 279.39896 69.681999"
   version="1.1"
   id="svg1"
   xml:space="preserve"
   inkscape:version="1.4.2 (f4327f4, 2025-05-13)"
   sodipodi:docname="EngageHydrovac.svg"
   xmlns:inkscape="http://www.inkscape.org/namespaces/inkscape"
   xmlns:sodipodi="http://sodipodi.sourceforge.net/DTD/sodipodi-0.dtd"
   xmlns="http://www.w3.org/2000/svg"
   xmlns:svg="http://www.w3.org/2000/svg"><sodipodi:namedview
     id="namedview1"
     pagecolor="#505050"
     bordercolor="#ffffff"
     borderopacity="1"
     inkscape:showpageshadow="0"
     inkscape:pageopacity="0"
     inkscape:pagecheckerboard="1"
     inkscape:deskcolor="#505050"
     inkscape:document-units="mm"
     inkscape:zoom="0.35355339"
     inkscape:cx="-411.53614"
     inkscape:cy="567.09964"
     inkscape:window-width="2560"
     inkscape:window-height="1511"
     inkscape:window-x="-9"
     inkscape:window-y="-9"
     inkscape:window-maximized="1"
     inkscape:current-layer="layer1"
     showguides="true" /><defs
     id="defs1" /><g
     inkscape:label="Layer 1"
     inkscape:groupmode="layer"
     id="layer1"
     transform="translate(-7.2510127,-106.86429)"><path
       id="path73"
       style="fill:#c63932;fill-opacity:1;stroke-width:2.58435"
       d="m 34.413522,170.86478 c -3.739213,-0.67925 -6.188837,-1.83323 -7.998628,-3.76806 -2.213596,-2.36651 -3.042215,-4.63236 -3.206088,-8.76715 l -0.115003,-2.8992 8.486165,-6.2e-4 c -0.262776,2.33389 0.234141,4.64494 1.177582,6.78364 1.88068,3.95442 7.358667,6.02548 13.920037,5.26274 4.196357,-0.48782 10.385477,-2.23921 14.113112,-3.99372 3.160913,-1.48778 5.683339,-2.80505 7.611286,-3.97483 2.015454,-1.22288 2.453888,-1.40911 2.453888,-1.04226 0,0.222 -3.191228,2.60957 -6.004107,4.4919 -4.080837,2.73083 -10.912142,5.76048 -15.809529,7.01146 -4.384704,1.12001 -11.123877,1.53283 -14.628922,0.8961 z M 57.51075,153.66693 59.735407,144.49 H 38.705216 17.674998 l -0.694233,2.52749 18.859471,-0.0129 -5.46261,6.68552 -23.1266133,-0.0155 6.2199523,-23.83948 c 8.992438,-0.0344 17.950142,0.0207 26.942632,0.003 -1.35598,1.67014 -6.207676,6.62795 -6.207676,6.62795 l -14.573461,0.005 -0.47043,2.32656 24.807808,0.0556 24.807833,-0.0654 -1.897065,8.33622 13.122378,-0.0597 13.122404,-0.0597 c 1.100388,-0.15016 1.365749,-1.94198 0.116554,-2.36993 -0.287457,-0.0985 -2.761891,-0.14627 -7.457466,-0.14627 -4.642312,-0.0538 -13.106303,1.20342 -13.484677,-5.47018 0.05143,-4.46996 2.700512,-7.48982 7.689592,-8.76582 3.15546,-0.80703 12.735707,-0.222 14.022479,-0.56642 0.573208,-0.15351 0.77091,-0.5764 1.365491,-2.921 1.373606,-5.4164 -0.657276,-10.99466 -4.910386,-13.48731 -2.250811,-1.31918 -4.020648,-1.66784 -8.561007,-1.6865 -5.975422,-0.0233 -10.598894,0.81382 -17.723445,3.21369 -6.100219,2.05484 -10.429127,4.17356 -15.702769,7.68548 -0.693793,0.46203 -1.333807,0.76435 -1.422268,0.67183 -0.08838,-0.0925 0.01809,-0.27978 0.238793,-0.41608 0.219669,-0.13645 1.15515,-0.79831 2.078667,-1.47108 1.629973,-1.18741 3.637544,-2.4565 7.477546,-4.72699 4.802025,-2.83929 11.022183,-5.60493 16.082384,-7.15057 28.471944,-8.27182 32.133754,6.19398 32.494634,8.15276 0.47045,2.55341 0.16049,6.44231 -0.77836,9.7618 -0.99938,3.07462 -1.70995,6.26549 -2.91996,9.26938 l -10.787817,0.0181 c -11.837131,0.0207 -11.339541,-0.0367 -11.331478,1.31095 0.0078,1.25086 -0.287173,1.20602 8.795382,1.33898 9.32954,0.13646 9.8339,0.20934 11.532307,1.66308 1.714616,1.46765 1.971546,3.72854 0.766806,6.74778 -1.362265,3.30749 -2.644617,5.95577 -7.925444,5.99749 -0.487097,0.003 -34.785217,0.0824 -35.270196,0.0103 z m -18.407235,-6.7042 7.367143,0.0258 -1.704971,6.70751 -7.547685,-0.0271 c 0,0 1.245242,-4.47882 1.885513,-6.70513 z m 1.781106,-10.49428 1.790951,-6.63727 7.700653,-0.003 -1.709597,6.59355 -7.782007,0.0476 z m 22.321434,-6.66371 7.649947,0.0421 -1.540115,6.6196 -7.646588,-0.0233 z"
       sodipodi:nodetypes="csscccssssssccccccccccccccccccccsccsssscssscsscsccccssccccccccccccccccccccc" /><path
       id="path74"
       style="fill:#000000;stroke-width:2.58435"
       d="m 24.972803,170.9958 c -1.140962,-1.39136 -2.548294,-4.21003 -2.911705,-5.83163 -0.335396,-1.49653 -0.357957,-3.99257 -0.03902,-4.31156 0.198736,-0.19874 0.25846,-0.083 0.25846,0.50142 0,0.41793 0.300275,1.53967 0.667278,2.49278 2.799519,7.27025 10.225766,9.92789 22.023226,7.88148 2.457067,-0.42621 2.635102,-0.47079 5.863493,-1.46841 5.946012,-1.83733 11.23012,-4.351 16.809102,-7.99612 3.147449,-2.05641 8.682473,-6.64998 8.682473,-6.64998 l 9.408723,0.0155 c 0,0 -3.910606,3.90626 -6.236026,5.70055 -7.435524,5.73726 -15.48067,9.88615 -24.662206,12.71831 -5.249452,1.61924 -22.426176,6.01848 -29.863795,-3.05157 z m 18.40323,-42.94976 c 0,0 2.516016,-2.30275 5.271032,-4.17971 4.296267,-2.927 8.327692,-5.10555 13.830721,-7.47411 2.452388,-1.05552 7.580377,-2.48793 10.688078,-2.98551 2.557857,-0.40952 3.563839,-0.46779 6.223726,-0.36047 5.246686,0.21166 8.435718,1.35278 11.008796,3.93903 2.243238,2.25477 3.203814,4.65363 3.210481,8.01773 0.0026,1.82094 -0.2344,1.82512 -0.622621,0.0103 -0.7936,-3.70931 -3.618988,-6.65192 -7.470025,-7.77999 -1.846309,-0.54083 -6.518935,-0.54846 -10.023204,-0.0155 -7.741615,1.17555 -17.673101,5.46225 -22.930849,9.89742 l -1.117497,0.94267 -8.068638,-0.0129 z" /><path
       id="path75"
       style="fill:#c63932;fill-opacity:1;stroke-width:0.815098"
       d="m 140.72949,135.46818 c -1.86461,0 -3.39192,0.0258 -3.3944,0.0548 -0.002,0.03 1.30288,2.28241 2.90012,5.00543 1.5972,2.72303 2.89966,4.98577 2.89485,5.02816 -0.005,0.0426 -0.3332,1.26739 -0.73059,2.72175 -0.39688,1.45246 -0.72767,2.68811 -0.73511,2.74977 -0.0103,0.0912 0.37076,0.10674 2.76038,0.10674 2.58469,0 2.77649,-0.008 2.82141,-0.12689 0.0261,-0.07 0.37879,-1.34024 0.78334,-2.82325 0.40443,-1.48297 0.75838,-2.71717 0.78603,-2.74043 0.78371,-0.68175 10.79985,-9.56121 10.97747,-9.73177 l 0.25559,-0.24448 h -3.62943 -3.62948 l -2.8748,2.65898 c -1.58185,1.46293 -2.89161,2.65802 -2.91051,2.65629 -0.0181,-0.002 -0.67614,-1.19946 -1.45961,-2.6603 l -1.42421,-2.65497 z m 88.19757,0 c -1.85599,0 -3.03528,0.0261 -3.04002,0.0682 -0.004,0.0377 1.00054,3.29287 2.23317,7.23304 1.23264,3.9402 2.3241,7.43529 2.42504,7.76594 l 0.18462,0.59695 2.53279,-0.003 2.53279,-0.003 6.61846,-7.74053 c 3.64018,-4.25747 6.63637,-7.78175 6.65668,-7.83137 0.0295,-0.0713 -0.65133,-0.0863 -3.22163,-0.0708 l -3.25725,0.0207 -3.91111,4.73434 c -2.15097,2.60399 -3.93624,4.7428 -3.96816,4.75572 -0.0316,0.0103 -0.40218,-1.20066 -0.82272,-2.69371 -0.42054,-1.49304 -1.02709,-3.6421 -1.34798,-4.77441 l -0.58379,-2.05799 z m 48.10407,0.0359 c -7.24747,0 -7.25502,0 -7.80599,0.15894 -0.78883,0.22716 -1.27288,0.49035 -1.78755,0.97092 -0.56209,0.52483 -0.96923,1.15 -1.32352,2.03395 -0.27841,0.6946 -2.00976,6.90224 -2.29037,8.21197 -0.50013,2.33441 0.32302,3.8537 2.26298,4.17743 l -2.8e-4,0.003 c 0.56351,0.0941 13.81126,0.093 14.4287,-0.001 1.3733,-0.20933 2.31158,-0.7755 3.04752,-1.83764 0.53302,-0.76932 0.86552,-1.63832 1.42684,-3.73139 0.16127,-0.60122 0.31506,-1.1506 0.3415,-1.22063 0.0452,-0.11966 -0.11242,-0.1269 -2.66883,-0.1269 -1.49414,0 -2.71731,0.008 -2.71906,0.0233 -10e-4,0.0129 -0.0985,0.37427 -0.21554,0.80131 -0.24629,0.89733 -0.416,1.17285 -0.78991,1.28475 -0.34421,0.10312 -8.53193,0.10312 -8.85307,0 -0.28396,-0.0912 -0.3486,-0.24215 -0.29808,-0.69046 0.0481,-0.42737 1.10143,-4.26598 1.28254,-4.67425 0.26854,-0.60642 -0.0315,-0.56836 4.81978,-0.59162 2.94585,-0.0129 4.38129,0.005 4.55573,0.06 0.20339,0.0633 0.26847,0.13025 0.32212,0.33522 0.0597,0.22665 0.0488,0.32599 -0.10079,0.85738 -0.0928,0.3307 -0.17341,0.64051 -0.17884,0.6878 -0.008,0.0654 0.64555,0.0822 2.68759,0.0667 l 2.69612,-0.0207 0.3086,-1.12983 c 0.36791,-1.34711 0.53496,-2.55949 0.44807,-3.24258 -0.14575,-1.14615 -0.78122,-1.89306 -1.93275,-2.27035 -0.38685,-0.12637 -0.81415,-0.1349 -7.66359,-0.1349 z m -24.73191,0.0362 -6.41609,7.70714 c -3.52852,4.23854 -6.4417,7.74784 -6.47431,7.79798 l -1.5e-4,0.001 c -0.0471,0.0729 0.61865,0.0907 3.24338,0.0907 h 3.3029 l 0.91795,-1.16721 5.13982,-6.57735 c 1.94554,-2.49821 2.30221,-2.95067 2.38928,-2.96347 h 0.001 0.001 c 7e-4,3e-5 0.003,-7e-5 0.005,0 6.2e-4,1.6e-4 0.003,0.001 0.005,0.001 5.4e-4,2.6e-4 0.003,0.001 0.005,0.001 0.005,0.005 0.0103,0.0129 0.0129,0.0207 0.0581,0.14938 1.01371,4.21536 1.00718,4.28563 -0.005,0.0318 -1.02098,0.0561 -2.26025,0.0561 h -0.94235 l -3.13022,4.01451 3.00823,0.0129 4.31919,0.0181 0.26927,1.14719 0.27071,1.14587 3.09483,0.001 c 2.92,7.7e-4 3.0922,-0.005 3.06664,-0.12689 -0.0155,-0.07 -1.0256,-3.57815 -2.24564,-7.79664 l -2.21711,-7.67109 h -3.18562 z m -136.43655,0.001 -2.10012,7.7419 c -1.155,4.25849 -2.10109,7.76745 -2.10373,7.79795 l -6e-4,0.005 c -0.002,0.0313 1.25281,0.0504 2.79084,0.0375 l 2.79611,-0.0207 0.72968,-2.71372 0.72985,-2.71509 h 4.82505 c 4.56536,0 4.82348,0.005 4.77756,0.12689 -0.0605,0.15997 -1.40367,5.14543 -1.41633,5.25785 -0.008,0.0607 0.74134,0.0783 2.7854,0.0628 l 2.79472,-0.0207 2.0294,-7.46943 c 1.11642,-4.10825 2.06567,-7.60896 2.10834,-7.77927 l 0.0773,-0.30984 h -2.79908 -2.79905 l -0.67586,2.49604 -0.67583,2.49607 -4.76587,0.0181 c -2.62114,0.0103 -4.78222,-0.005 -4.80473,-0.0388 -0.0233,-0.0302 0.25197,-1.12132 0.60904,-2.42391 0.357,-1.30261 0.65508,-2.40853 0.66229,-2.45867 0.0103,-0.0703 -0.58801,-0.0884 -2.78114,-0.0881 z m 44.76795,0 -2.10006,7.7419 c -1.15504,4.25851 -2.10193,7.76797 -2.10376,7.79795 -0.003,0.0354 2.51901,0.053 5.64248,0.0561 0,0 1.6301,-6.28256 2.05975,-7.85675 l 0.78104,-2.86195 4.67345,0.0207 c 4.3405,0.0181 4.68545,0.0302 4.82954,0.14964 0.19352,0.16023 0.27258,0.4198 0.23396,0.76256 -0.0521,0.46239 -1.03679,3.98163 -1.18725,4.24287 -0.19696,0.34197 -0.42604,0.4992 -0.85248,0.58629 l 1.5e-4,-0.001 c -0.32919,0.0687 -5.80165,0.0943 -8.16692,0.0615 l -1.3173,4.89995 c 4.72042,-3e-5 10.26994,-0.032 10.65932,-0.0842 1.96983,-0.26507 3.39172,-1.22038 4.35792,-2.92738 0.54519,-0.96319 0.84153,-1.8771 1.94143,-5.99106 0.36862,-1.37873 0.50093,-2.44862 0.40413,-3.26662 -0.16483,-1.39314 -0.84009,-2.3884 -1.98326,-2.92207 -0.89354,-0.41494 -0.66436,-0.40613 -9.62704,-0.406 z m 22.67788,0 -2.06236,7.59632 c -1.13426,4.17825 -2.08433,7.68737 -2.11176,7.79798 l -0.0494,0.20158 2.80274,-0.0207 2.80274,-0.0207 0.61839,-2.25833 c 0,0 2.2958,-8.54282 2.40861,-8.90642 l 0.0519,-0.16437 h 4.33991 c 2.6827,0 4.40169,0.0279 4.50105,0.0721 0.2544,0.1132 0.26879,0.34694 0.0654,1.11114 -0.24024,0.90238 -0.34725,1.14365 -0.58649,1.32482 -0.19928,0.14963 -0.25038,0.1517 -4.60992,0.17237 -1.66042,0.008 -2.69899,0.0103 -3.34614,0.005 l -1.10248,4.11733 1.6393,-0.0103 2.7438,-0.0181 1.05228,2.27701 1.05347,2.27836 3.14863,0.0207 c 1.73214,0.0103 3.15074,0.002 3.153,-0.0181 0.002,-0.0207 -0.53199,-1.14491 -1.18873,-2.49738 l -1.19443,-2.45864 0.44765,-0.0574 c 1.7437,-0.22769 2.62464,-0.77215 3.32098,-2.05267 0.38778,-0.71308 0.60919,-1.35455 1.05555,-3.0623 0.46658,-1.78497 0.5415,-2.18413 0.52504,-2.81388 -0.0362,-1.38782 -0.6582,-2.20732 -1.8962,-2.50005 -0.42896,-0.0992 -1.50155,-0.11526 -9.03474,-0.11474 z m 32.11733,0.0362 c -8.62197,0 -8.02631,-0.0328 -9.06902,0.49679 -0.95519,0.48516 -1.82897,1.64806 -2.31116,3.07431 -0.25595,0.75709 -1.93562,6.90974 -2.11565,7.74991 -0.49701,2.31927 0.32615,3.82978 2.26625,4.16007 0.12697,0.0207 1.59713,0.037 3.7005,0.0439 l 1.33993,-4.88793 c -0.55422,-0.008 -0.90476,-0.0207 -0.95177,-0.0346 -0.28319,-0.0783 -0.42345,-0.31116 -0.38628,-0.64105 0.0367,-0.32564 1.11316,-4.27947 1.23712,-4.54335 0.0499,-0.10622 0.17385,-0.27028 0.27434,-0.3646 l 0.18189,-0.17083 4.58881,-0.0207 c 2.52341,-0.0103 4.65295,-0.003 4.73211,0.0207 0.26235,0.0744 0.37278,0.2995 0.33083,0.67175 -0.0532,0.47201 -1.12837,4.36392 -1.27651,4.62081 -0.066,0.11449 -0.20543,0.26626 -0.30984,0.33656 -0.17623,0.11991 -0.51426,0.12741 -4.67028,0.14033 -0.99106,0.003 -1.92595,0.002 -2.69719,-0.005 l -1.33771,4.87992 c 0.92749,0.002 1.94066,0.002 2.99235,0 8.23465,-0.0181 7.80243,0.008 8.84026,-0.52485 0.96743,-0.49733 1.74144,-1.49399 2.26229,-2.91274 0.13113,-0.35721 0.66979,-2.22285 1.19775,-4.14672 0.8191,-2.98466 0.97558,-3.62128 1.06184,-4.33635 0.0814,-0.67635 0.0838,-0.93768 0.0137,-1.35154 -0.17217,-1.01592 -0.68618,-1.65193 -1.65737,-2.05266 l -0.49297,-0.20287 z"
       sodipodi:nodetypes="scssscssscccccccccscssccccccccccscccscssscccssssssssscccccsccsscscsccscccccssscccsccccccccccccccccccccscscccscccccccssccccccsccssscccccsssccccccccccccssscccccccccscccssscccssssccccssccccsscsccccssccccs" /><path
       id="path76"
       style="fill:#000000;fill-opacity:1;stroke-width:0.495954"
       d="m 130.93248,119.96037 -5.70223,0.0103 -5.70352,0.0103 -1.26442,4.68893 c -0.69542,2.57889 -1.26821,4.72349 -1.27434,4.76639 l -0.003,10e-4 c -0.0103,0.0724 0.29025,0.0775 5.76208,0.0775 3.17484,0 5.77386,-0.0155 5.77629,-0.0375 0.002,-0.0207 0.15584,-0.59435 0.34049,-1.27673 0.18478,-0.68237 0.34018,-1.27659 0.34522,-1.31949 0.008,-0.0724 -0.21114,-0.0775 -4.06039,-0.0775 -3.85631,0 -4.06813,-0.003 -4.04195,-0.0775 0.0155,-0.0429 0.0812,-0.27188 0.14602,-0.51016 l 0.1194,-0.43404 h 3.77175 3.77182 l 0.26766,-1.01097 c 0.14705,-0.55613 0.27862,-1.04554 0.29333,-1.08844 0.0269,-0.0726 -0.17264,-0.0788 -3.74727,-0.0788 h -3.77439 l 0.0447,-0.16565 c 0.0207,-0.0918 0.0773,-0.29783 0.12043,-0.45676 l 0.078,-0.28847 4.01751,-0.0103 c 2.21,-0.008 4.01959,-0.0181 4.02034,-0.0233 5.7e-4,-0.005 0.15171,-0.57093 0.3368,-1.25536 0.18504,-0.68447 0.34193,-1.2898 0.34806,-1.34485 z m 3.79279,0 -1.44912,0.0103 -1.44907,0.0103 -1.26571,4.68893 c -0.69578,2.57889 -1.26995,4.72324 -1.27569,4.76639 l -1.5e-4,10e-4 c -0.0103,0.0742 0.0855,0.077 1.62465,0.0667 l 1.63452,-0.0103 0.76001,-2.81389 c 0.41796,-1.5478 0.76813,-2.8348 0.77837,-2.86064 0.0103,-0.0258 1.20061,1.24661 2.64477,2.82593 l 2.62532,2.8713 h 1.39795 1.39797 l 1.26941,-4.72232 c 0.69861,-2.59724 1.27271,-4.74765 1.27571,-4.7784 l 1.5e-4,-0.001 -10e-4,-10e-4 1.3e-4,-0.001 -0.001,-0.001 c -4.4e-4,-6.5e-4 -0.002,-0.002 -0.002,-0.003 -0.0506,-0.0367 -0.44236,-0.0468 -1.61503,-0.0468 -1.51267,0 -1.62713,0.005 -1.65251,0.0775 -0.0155,0.0429 -0.35765,1.31249 -0.76091,2.82193 -0.40324,1.50948 -0.74254,2.74498 -0.75494,2.74444 -0.0129,-5.1e-4 -1.18113,-1.27122 -2.60038,-2.82324 z m 63.01609,0.001 -5.70347,0.0103 -5.70217,0.0103 -1.26443,4.68893 c -0.69541,2.57892 -1.26948,4.7235 -1.27566,4.7664 l -1.5e-4,0.001 c -0.0103,0.0752 0.29013,0.0788 5.76195,0.0788 3.17478,0 5.77374,-0.0155 5.77619,-0.0375 0.002,-0.0207 0.15462,-0.59569 0.33937,-1.27807 0.18475,-0.68239 0.34018,-1.27525 0.34515,-1.31815 0.008,-0.0724 -0.2113,-0.0775 -4.06033,-0.0775 -3.85618,0 -4.06727,-0.003 -4.04062,-0.0775 0.0153,-0.0426 0.0813,-0.27322 0.1463,-0.51149 l 0.11782,-0.43273 h 3.77175 3.77305 l 0.26643,-1.01229 c 0.14707,-0.55613 0.28018,-1.04554 0.29462,-1.08844 0.0248,-0.0726 -0.17279,-0.0775 -3.74735,-0.0775 h -3.77436 l 0.0422,-0.16695 c 0.0235,-0.0917 0.0772,-0.29648 0.12035,-0.45542 l 0.0794,-0.28846 4.01749,-0.0103 c 2.20995,-0.008 4.01823,-0.0181 4.01894,-0.0233 7.1e-4,-0.005 0.15328,-0.57091 0.33818,-1.25537 0.18491,-0.68444 0.34039,-1.28845 0.34663,-1.3435 z m -50.36687,0.0181 -0.33433,0.0974 c -0.47875,0.13852 -0.77285,0.29854 -1.08499,0.59163 -0.34093,0.3201 -0.58629,0.70158 -0.80079,1.24067 -0.1685,0.42362 -1.21593,4.21065 -1.38554,5.00944 -0.3026,1.42599 0.19331,2.34605 1.37499,2.54815 l -1.2e-4,0.001 c 0.12068,0.0207 2.23739,0.0333 4.70363,0.0282 4.09025,-0.008 4.50969,-0.0155 4.77022,-0.0855 0.97454,-0.26102 1.57137,-0.88297 1.99637,-2.08206 0.1119,-0.31573 0.85064,-3.00366 0.86809,-3.15845 0.008,-0.0726 -0.17548,-0.0775 -3.27653,-0.0775 h -3.28388 l -0.25867,0.98959 c -0.1424,0.54388 -0.26053,1.01387 -0.26348,1.04436 l -1.5e-4,10e-4 -1.3e-4,0.001 0.001,0.001 -1.5e-4,10e-4 c 0.0295,0.0398 0.41199,0.0494 1.64367,0.0494 1.5518,0 1.64636,0.005 1.61945,0.0775 -0.0155,0.0429 -0.0584,0.16592 -0.0946,0.27245 -0.0814,0.2375 -0.22846,0.39144 -0.40918,0.42736 -0.0747,0.0129 -1.40115,0.0207 -2.94598,0.0129 l -2.80893,-0.0129 -0.0804,-0.12559 c -0.0457,-0.0695 -0.076,-0.18064 -0.068,-0.25249 0.0233,-0.21915 0.88008,-3.36624 0.95001,-3.49365 0.0364,-0.0662 0.12224,-0.16281 0.18969,-0.21373 0.12147,-0.0925 0.14318,-0.0936 2.9589,-0.0936 h 2.83668 l 0.0866,0.13077 c 0.0783,0.11965 0.0817,0.15609 0.032,0.41135 l -0.0543,0.28045 h 1.69912 1.69779 l 0.12688,-0.4781 c 0.46015,-1.74531 0.14886,-2.69927 -0.99899,-3.06765 -0.22226,-0.0724 -0.59182,-0.0775 -4.82311,-0.0775 z m 26.81893,10e-4 -0.33566,0.0974 c -0.4787,0.13852 -0.77154,0.29854 -1.08368,0.59161 -0.3409,0.32007 -0.58753,0.7016 -0.80211,1.24068 -0.1685,0.42363 -1.21582,4.20934 -1.38538,5.0081 -0.30268,1.42597 0.19486,2.34606 1.37634,2.54815 l -1.6e-4,0.001 c 0.12069,0.0207 2.23731,0.0346 4.70351,0.0295 4.09026,-0.008 4.50842,-0.0155 4.76891,-0.0855 0.97454,-0.26102 1.57154,-0.88427 1.99654,-2.08338 0.11188,-0.31573 0.85045,-3.00232 0.8679,-3.15711 0.008,-0.0724 -0.17395,-0.0775 -3.27522,-0.0775 h -3.28383 l -0.25849,0.98825 c -0.14234,0.54388 -0.26182,1.01387 -0.26471,1.04436 l 0.001,0.001 -1.5e-4,10e-4 -1.5e-4,0.001 0.001,0.001 c 0.0294,0.0398 0.41056,0.0507 1.6422,0.0507 1.55179,0 1.64768,0.005 1.6208,0.0775 -0.0158,0.0429 -0.058,0.16436 -0.0946,0.27109 -0.0813,0.23751 -0.22957,0.39145 -0.4105,0.42737 -0.0748,0.0129 -1.39987,0.0207 -2.94466,0.0129 l -2.80895,-0.0129 -0.0822,-0.1243 c -0.0458,-0.0695 -0.0757,-0.18194 -0.0678,-0.25378 0.0243,-0.21916 0.8814,-3.36624 0.95136,-3.49365 0.0363,-0.0662 0.12089,-0.16282 0.18819,-0.21373 0.12144,-0.0925 0.14444,-0.0923 2.96006,-0.0923 h 2.83669 l 0.0854,0.13077 c 0.0783,0.11965 0.0816,0.15609 0.0319,0.41132 l -0.0534,0.27914 h 1.69781 1.69912 l 0.12534,-0.47679 c 0.46018,-1.74531 0.15028,-2.69927 -0.99768,-3.06762 -0.22238,-0.0721 -0.59179,-0.0775 -4.8231,-0.0775 z m -10.61026,0.0233 -3.88925,4.6996 c -2.13945,2.58504 -3.90607,4.72497 -3.92579,4.75572 l -2.8e-4,0.003 c -0.0282,0.045 0.37592,0.0548 1.96922,0.0548 h 2.00424 l 0.55786,-0.71182 3.11576,-4.01184 c 1.17955,-1.52373 1.39496,-1.80041 1.44778,-1.80824 h 0.001 0.001 0.001 l 0.001,0.001 h 0.001 10e-4 l 0.001,0.001 h 0.001 c 0.002,0.002 0.005,0.008 0.008,0.0103 0.0354,0.091 0.61748,2.57018 0.61404,2.61492 -0.003,0.0207 -0.621,0.0346 -1.37289,0.0346 h -0.35641 l -1.90719,2.45066 1.621,0.005 2.62115,0.0103 0.16411,0.69979 0.16565,0.69981 h 1.878 c 1.77255,7.8e-4 1.87879,-0.005 1.86293,-0.0775 -0.008,-0.0426 -0.62578,-2.1829 -1.36891,-4.75569 l -1.35135,-4.67692 h -1.93322 z"
       sodipodi:nodetypes="cccsccsssssscccccssccccccsccccccsscccccccccscccccscsscccccsssssssscccccccscccccssccccssccccssssccsccccsscccccsscsccccccccscccsssccssssscccccccsssccccsscsccccccccscccccsccccccccccccccscccccccscccc" /><path
       id="path77"
       style="fill:#000000;fill-opacity:1;stroke-width:0.489408"
       d="m 228.23293,156.17641 c -1.09718,0 -1.79443,0.0155 -1.79736,0.0413 -0.003,0.0233 0.58353,2.00825 1.30271,4.41115 0.71919,2.40287 1.35704,4.5341 1.41593,4.73568 l 0.10568,0.36726 1.49829,-0.001 1.49711,-0.003 3.93219,-4.71966 c 2.16218,-2.59637 3.94117,-4.74658 3.95343,-4.77707 0.0178,-0.0437 -0.38504,-0.0504 -1.90434,-0.0426 l -1.92506,0.0103 -2.32437,2.88734 c -1.27785,1.58801 -2.33792,2.89294 -2.35668,2.9007 -0.0186,0.008 -0.23577,-0.73212 -0.48078,-1.64266 -0.245,-0.91052 -0.59738,-2.22086 -0.78434,-2.91137 l -0.33987,-1.25538 z m 12.38814,0 -0.0316,0.10027 c -0.0378,0.12069 -2.4951,9.32526 -2.51727,9.42861 8.1e-4,0.0155 0.75378,0.0258 1.67463,0.0258 h 1.67755 l 0.078,-0.29914 c 0.0433,-0.16488 0.61502,-2.30079 1.26948,-4.74504 0.65446,-2.4443 1.18399,-4.45849 1.17749,-4.47658 -0.006,-0.0181 -0.75771,-0.0333 -1.66975,-0.0333 z m 28.51162,0 -5.55461,0.0103 -5.55329,0.0103 -1.25375,4.68895 c -0.68986,2.57871 -1.25922,4.72374 -1.26519,4.76638 l -1.5e-4,10e-4 c -0.0103,0.0726 0.28156,0.0775 5.61028,0.0775 3.09173,0 5.62183,-0.0129 5.62462,-0.0375 0.002,-0.0207 0.15402,-0.59437 0.3373,-1.27675 0.18323,-0.68231 0.33829,-1.27547 0.34333,-1.31811 0.008,-0.0726 -0.20571,-0.0788 -3.95399,-0.0788 -3.75532,0 -3.9615,-0.003 -3.9354,-0.0775 0.0155,-0.0429 0.0804,-0.27321 0.14499,-0.51149 l 0.11733,-0.4327 h 3.67372 3.67372 l 0.26441,-1.01096 c 0.14602,-0.55608 0.27748,-1.04579 0.2919,-1.08843 0.0233,-0.0726 -0.16772,-0.0788 -3.64875,-0.0788 h -3.67507 l 0.0416,-0.16566 c 0.0233,-0.0917 0.077,-0.29648 0.11992,-0.45542 l 0.0783,-0.28978 3.91187,-0.0103 c 2.1522,-0.008 3.91397,-0.0181 3.91469,-0.0233 7.8e-4,-0.005 0.15145,-0.57095 0.33489,-1.25536 0.18348,-0.68439 0.3387,-1.29006 0.34506,-1.34485 z m -55.44088,0.001 -5.55461,0.0103 -5.55328,0.0103 -1.25509,4.68894 c -0.68987,2.57874 -1.25766,4.72374 -1.26386,4.76638 l -10e-4,10e-4 c -0.0103,0.0729 0.28276,0.0788 5.61146,0.0788 3.09174,0 5.62185,-0.0129 5.62462,-0.0375 0.002,-0.0207 0.15421,-0.59577 0.33747,-1.2781 0.18325,-0.68233 0.3383,-1.27547 0.34334,-1.31811 0.009,-0.0726 -0.2058,-0.0775 -3.95414,-0.0775 -3.75533,0 -3.96151,-0.003 -3.93541,-0.0775 0.0153,-0.0426 0.0804,-0.27322 0.14491,-0.5115 l 0.1174,-0.43404 h 3.67374 3.67373 l 0.2644,-1.01096 c 0.14596,-0.55608 0.27748,-1.04579 0.29189,-1.08843 0.0246,-0.0726 -0.1678,-0.0775 -3.64889,-0.0775 h -3.67507 l 0.0417,-0.16695 c 0.0233,-0.0917 0.077,-0.29622 0.11984,-0.45542 l 0.0782,-0.28846 3.91187,-0.0103 c 2.15218,-0.008 3.91395,-0.0181 3.91468,-0.0233 7.4e-4,-0.005 0.15144,-0.57095 0.33489,-1.25534 0.18349,-0.68441 0.33868,-1.29008 0.34501,-1.34487 z m 62.10317,0.008 c -4.95693,0.0155 -4.68007,6.4e-4 -5.18443,0.27645 -0.44994,0.24603 -0.82852,0.78871 -1.05981,1.52112 -0.1778,0.56326 -0.5346,1.94312 -0.55969,2.16485 -0.12121,1.07099 0.3472,1.68502 1.36295,1.78555 0.14705,0.0155 1.7508,0.0925 3.56317,0.17238 2.45394,0.10828 3.30768,0.15971 3.34701,0.20158 0.11733,0.1256 -0.0561,0.87416 -0.2375,1.02301 -0.10673,0.0876 -0.16359,0.0887 -2.83756,0.0881 -1.50048,-2.6e-4 -2.76734,-0.0129 -2.81505,-0.0282 -0.1318,-0.0421 -0.14317,-0.19098 -0.0437,-0.54755 l 0.0876,-0.31252 h -1.59589 -1.59585 l -0.0628,0.21088 c -0.16101,0.53874 -0.30837,1.24109 -0.31211,1.49176 -0.0129,0.81373 0.35147,1.30709 1.06782,1.44768 l -1.5e-4,0.001 c 0.10751,0.0181 2.2558,0.0393 4.77359,0.0413 4.99498,0.005 4.94476,0.005 5.44783,-0.24965 0.33659,-0.17082 0.62808,-0.47332 0.83744,-0.8694 0.21476,-0.40608 0.29096,-0.63698 0.59547,-1.80692 0.28302,-1.08745 0.33799,-1.52631 0.24423,-1.9565 -0.0941,-0.43169 -0.41454,-0.76288 -0.8787,-0.90683 -0.28565,-0.0886 -0.51033,-0.10182 -3.97884,-0.24965 -1.7235,-0.0734 -3.1897,-0.14472 -3.25827,-0.15764 -0.17909,-0.0341 -0.20545,-0.16256 -0.10932,-0.53688 0.1362,-0.52939 -0.15299,-0.48119 2.89023,-0.49411 3.08161,-0.0129 2.84385,-0.052 2.75244,0.43935 l -0.0574,0.30583 h 1.59455 1.59454 l 0.13878,-0.59961 c 0.0928,-0.40393 0.1411,-0.70933 0.15041,-0.93752 0.0328,-0.82979 -0.34354,-1.3517 -1.07316,-1.48376 -0.18168,-0.0328 -1.68664,-0.0424 -4.78773,-0.0346 z m -80.63086,0.001 c -4.95695,0.0155 -4.6799,-6.7e-4 -5.18428,0.27514 -0.44992,0.24603 -0.82867,0.79008 -1.05997,1.52246 -0.17786,0.56327 -0.53444,1.94178 -0.55954,2.16351 -0.12123,1.07101 0.34725,1.68476 1.36296,1.78555 0.147,0.0155 1.7508,0.0925 3.56318,0.17238 2.45393,0.10828 3.30902,0.15971 3.34835,0.20158 0.11738,0.1256 -0.0575,0.87416 -0.23898,1.02301 -0.10663,0.0876 -0.16364,0.0899 -2.83772,0.0894 -1.50047,-2.6e-4 -2.7673,-0.0129 -2.81489,-0.0295 -0.13167,-0.0421 -0.14341,-0.18969 -0.0439,-0.54623 l 0.0877,-0.31384 h -1.59587 -1.59589 l -0.0627,0.21088 c -0.16109,0.53874 -0.3085,1.24243 -0.31227,1.4931 -0.0121,0.81374 0.35283,1.30709 1.06919,1.44768 0.10745,0.0181 2.25446,0.0393 4.77224,0.0413 4.99499,0.005 4.94445,0.008 5.44768,-0.24836 0.33658,-0.17082 0.62822,-0.47466 0.8376,-0.87074 0.21465,-0.40608 0.29093,-0.63704 0.59548,-1.80692 0.28298,-1.0875 0.33781,-1.52494 0.24414,-1.95519 -0.094,-0.43164 -0.41453,-0.76285 -0.87871,-0.9068 -0.2856,-0.0889 -0.51018,-0.10311 -3.9787,-0.25094 -1.72349,-0.0734 -3.18983,-0.14343 -3.2584,-0.15635 -0.17917,-0.0341 -0.2054,-0.16385 -0.10908,-0.53822 0.13614,-0.52937 -0.15313,-0.47985 2.89007,-0.49277 3.08159,-0.0129 2.84384,-0.052 2.75243,0.43935 l -0.0574,0.30584 h 1.59454 1.59587 l 0.13749,-0.59964 c 0.0927,-0.40391 0.14255,-0.71065 0.15178,-0.93885 0.0329,-0.82983 -0.34487,-1.35169 -1.07446,-1.48375 -0.18176,-0.0328 -1.68682,-0.0411 -4.78789,-0.0333 z m 55.71136,0.0103 c -4.28441,0 -4.28905,-5.1e-4 -4.61512,0.0961 -0.46687,0.13852 -0.75377,0.29991 -1.05919,0.59298 -0.33355,0.32005 -0.57535,0.70031 -0.78694,1.23935 -0.16623,0.42361 -1.20537,4.2107 -1.37439,5.00945 -0.30125,1.42358 0.18165,2.34909 1.32767,2.54679 0.33289,0.0574 8.16443,0.0574 8.52965,0 0.81233,-0.12767 1.36944,-0.47275 1.80705,-1.1205 0.31697,-0.46915 0.51519,-0.9992 0.85206,-2.27567 0.0969,-0.36664 0.18918,-0.70258 0.20494,-0.74522 0.0269,-0.0726 -0.0664,-0.0775 -1.57775,-0.0775 -0.88324,0 -1.60717,0.005 -1.60805,0.0129 -8.5e-4,0.008 -0.0584,0.22716 -0.1287,0.48746 -0.14783,0.54737 -0.24913,0.71729 -0.47046,0.78526 -0.20365,0.0628 -5.04238,0.0615 -5.23196,-0.001 -0.16767,-0.0556 -0.20691,-0.14731 -0.17597,-0.42068 0.0295,-0.26061 0.66186,-2.60244 0.76994,-2.85131 0.15997,-0.36812 -0.0181,-0.34633 2.85087,-0.35925 1.74146,-0.008 2.59068,0.003 2.69364,0.0362 0.12017,0.039 0.15842,0.0796 0.18969,0.20442 0.0346,0.13826 0.0261,0.19951 -0.0633,0.52351 -0.0556,0.20158 -0.10311,0.39042 -0.10647,0.41937 -0.005,0.0401 0.38031,0.0478 1.5873,0.0401 l 1.59439,-0.0103 0.18503,-0.68912 c 0.2207,-0.82149 0.32315,-1.5613 0.27342,-1.97788 -0.0835,-0.69899 -0.45806,-1.15464 -1.13785,-1.3849 -0.22846,-0.0768 -0.4803,-0.0814 -4.5294,-0.0814 z m -36.31961,0.0233 -1.23802,4.63286 c -0.6806,2.54804 -1.25052,4.68852 -1.26668,4.75571 l -0.0295,0.11888 1.6573,-0.0103 1.65596,-0.0103 0.37142,-1.37689 c 0,0 1.37732,-5.20973 1.44491,-5.43147 l 0.0316,-0.10028 h 2.56519 c 1.58591,0 2.60187,0.0181 2.6606,0.0442 0.15012,0.069 0.15777,0.21243 0.0357,0.67844 -0.14418,0.55013 -0.20781,0.69602 -0.34969,0.80663 -0.11831,0.0925 -0.14847,0.0925 -2.72573,0.10544 -0.81172,0.005 -1.37106,0.005 -1.75712,0.005 l -0.66028,2.5094 0.74765,-0.005 1.62115,-0.0103 0.61661,1.38893 0.61662,1.38891 1.86247,0.0103 c 1.02378,0.008 1.86202,0.003 1.86349,-0.0103 0.001,-0.0129 -0.31159,-0.69767 -0.69656,-1.52247 l -0.70047,-1.49974 0.26517,-0.0362 c 1.03134,-0.13878 1.55441,-0.47049 1.96915,-1.25136 0.23093,-0.4349 0.36254,-0.82687 0.63055,-1.86836 0.28012,-1.0885 0.32547,-1.33073 0.31728,-1.71477 -0.0181,-0.84635 -0.38402,-1.34792 -1.11516,-1.5265 -0.25316,-0.062 -0.88745,-0.0695 -5.34073,-0.0695 z"
       sodipodi:nodetypes="ssscccccsccccsscscccsccscscccccsssssssssccccsscccccssccccccccsssssscccccsscccccsscccsssccccscccccccccssssssscscccccccccccsscccssccccccccscssscscscccccscscsccsssssscsscssscccsssccsscscccccccccscscccccccccscccssscccccc" /><path
       id="path78"
       style="fill:#c63932;fill-opacity:1;stroke-width:8.47573;stroke-linecap:round;stroke-linejoin:round;paint-order:stroke fill markers"
       d="m 123.95777,159.59837 h 60.1205 l -0.61193,1.83766 h -60.1205 z"
       sodipodi:nodetypes="ccccc" /><path
       id="path79"
       style="fill:#c63932;fill-opacity:1;stroke-width:9.07845;stroke-linecap:round;stroke-linejoin:round;paint-order:stroke fill markers"
       d="m 201.63494,124.09549 h 68.97517 l -0.70204,1.83765 H 200.9329 Z"
       sodipodi:nodetypes="ccccc" /></g></svg>
